<svg width="150" height="150" viewBox="0 0 150 150" fill="none" xmlns="http://www.w3.org/2000/svg">
<path d="M131.25 81.25C131.25 96.1684 125.324 110.476 114.775 121.025C104.226 131.574 89.9184 137.5 75 137.5C60.0816 137.5 45.7742 131.574 35.2252 121.025C24.6763 110.476 18.75 96.1684 18.75 81.25L18.9375 27.6875C35.5 18 54.75 12.5 75.3125 12.5C95.625 12.5 114.75 17.9375 131.25 27.375V81.25ZM81.25 124.562C102.438 121.5 118.75 103.125 118.75 81.25V34.9375C105.625 28.5625 90.875 25 75.3125 25C59.375 25 44.25 28.75 30.875 35.375L31.25 81.25C31.25 103.125 47.6875 121.5 68.75 124.562V112.5H81.25V124.562ZM68.75 100H50L37.5 81.25L56.25 87.5H62.5L68.75 81.25H81.25L87.5 87.5H93.75L112.5 81.25L100 100H81.25L75 93.75L68.75 100ZM37.5 56.4375C41.5 52.5 46.875 50.3125 53.125 50.3125C59.0625 50.3125 64.625 52.5 68.75 56.4375C64.625 60.3125 59.0625 62.5 53.125 62.5C46.875 62.5 41.5 60.3125 37.5 56.4375ZM81.25 56.4375C85.25 52.5 90.625 50.3125 96.875 50.3125C102.812 50.3125 108.375 52.5 112.5 56.4375C108.375 60.3125 102.812 62.5 96.875 62.5C90.625 62.5 85.25 60.3125 81.25 56.4375Z" fill="#F8C033"/>
</svg>
