<svg width="150" height="150" viewBox="0 0 150 150" fill="none" xmlns="http://www.w3.org/2000/svg">
<path d="M18.75 87.5L21.875 87.9375L50.4375 59.375C49.8644 57.2763 49.8636 55.0624 50.4351 52.9632C51.0066 50.864 52.1296 48.9561 53.6875 47.4375C58.5625 42.5 66.4375 42.5 71.3125 47.4375C74.625 50.6875 75.6875 55.3125 74.5625 59.375L90.625 75.4375L93.75 75C94.875 75 95.9375 75 96.875 75.4375L119.188 53.125C118.75 52.1875 118.75 51.125 118.75 50C118.75 46.6848 120.067 43.5054 122.411 41.1612C124.755 38.817 127.935 37.5 131.25 37.5C134.565 37.5 137.745 38.817 140.089 41.1612C142.433 43.5054 143.75 46.6848 143.75 50C143.75 53.3152 142.433 56.4946 140.089 58.8388C137.745 61.183 134.565 62.5 131.25 62.5C130.125 62.5 129.063 62.5 128.125 62.0625L105.813 84.375C106.25 85.3125 106.25 86.375 106.25 87.5C106.25 90.8152 104.933 93.9946 102.589 96.3388C100.245 98.683 97.0652 100 93.75 100C90.4348 100 87.2554 98.683 84.9112 96.3388C82.567 93.9946 81.25 90.8152 81.25 87.5L81.6875 84.375L65.625 68.3125C63.625 68.75 61.375 68.75 59.375 68.3125L30.8125 96.875L31.25 100C31.25 103.315 29.933 106.495 27.5888 108.839C25.2446 111.183 22.0652 112.5 18.75 112.5C15.4348 112.5 12.2554 111.183 9.91117 108.839C7.56696 106.495 6.25 103.315 6.25 100C6.25 96.6848 7.56696 93.5054 9.91117 91.1612C12.2554 88.817 15.4348 87.5 18.75 87.5V87.5Z" fill="#F8C033"/>
</svg>
