<svg width="150" height="150" viewBox="0 0 150 150" fill="none" xmlns="http://www.w3.org/2000/svg">
<path d="M37.5 56.25H50V68.75H62.5V81.25H50V93.75H37.5V81.25H25V68.75H37.5V56.25ZM115.625 56.25C118.111 56.25 120.496 57.2377 122.254 58.9959C124.012 60.754 125 63.1386 125 65.625C125 68.1114 124.012 70.496 122.254 72.2541C120.496 74.0123 118.111 75 115.625 75C113.139 75 110.754 74.0123 108.996 72.2541C107.238 70.496 106.25 68.1114 106.25 65.625C106.25 63.1386 107.238 60.754 108.996 58.9959C110.754 57.2377 113.139 56.25 115.625 56.25ZM96.875 75C99.3614 75 101.746 75.9877 103.504 77.7459C105.262 79.504 106.25 81.8886 106.25 84.375C106.25 86.8614 105.262 89.246 103.504 91.0041C101.746 92.7623 99.3614 93.75 96.875 93.75C94.3886 93.75 92.004 92.7623 90.2459 91.0041C88.4877 89.246 87.5 86.8614 87.5 84.375C87.5 81.8886 88.4877 79.504 90.2459 77.7459C92.004 75.9877 94.3886 75 96.875 75ZM106.25 31.25C117.853 31.25 128.981 35.8594 137.186 44.0641C145.391 52.2688 150 63.3968 150 75C150 86.6032 145.391 97.7312 137.186 105.936C128.981 114.141 117.853 118.75 106.25 118.75C94 118.75 82.9375 113.75 75 105.625C70.9346 109.793 66.0738 113.102 60.7059 115.356C55.338 117.611 49.5721 118.765 43.75 118.75C32.1468 118.75 21.0188 114.141 12.8141 105.936C4.60936 97.7312 0 86.6032 0 75C0 63.3968 4.60936 52.2688 12.8141 44.0641C21.0188 35.8594 32.1468 31.25 43.75 31.25H106.25ZM43.75 43.75C35.462 43.75 27.5134 47.0424 21.6529 52.9029C15.7924 58.7634 12.5 66.712 12.5 75C12.5 83.288 15.7924 91.2366 21.6529 97.0971C27.5134 102.958 35.462 106.25 43.75 106.25C54 106.25 63.0625 101.312 68.75 93.75H81.25C86.9375 101.312 96 106.25 106.25 106.25C114.538 106.25 122.487 102.958 128.347 97.0971C134.208 91.2366 137.5 83.288 137.5 75C137.5 66.712 134.208 58.7634 128.347 52.9029C122.487 47.0424 114.538 43.75 106.25 43.75H43.75Z" fill="#F8C033"/>
</svg>
