<svg width="150" height="150" viewBox="0 0 150 150" fill="none" xmlns="http://www.w3.org/2000/svg">
<path d="M133.312 80.6871C133.875 90.3746 129.437 99.6871 121.5 105.375L126.312 114.687C127.75 117.5 127.937 120.812 126.687 123.75C125.5 126.687 123.062 129 120.062 130L115.125 131.562C113.069 132.255 110.849 132.296 108.769 131.681C106.689 131.066 104.849 129.824 103.5 128.125L90.25 112.5C84.6875 111.562 79.4375 109.187 75 105.625C71.875 106.562 68.75 107.062 65.625 107.062C60.125 107.062 54.625 105.375 50 102.125C46.6875 103.125 43.3125 103.562 39.875 103.5C34.9375 103.562 30.0625 102.562 25.5 100.687C21.1084 98.7276 17.3558 95.5733 14.6705 91.5839C11.9851 87.5946 10.4751 82.9308 10.3125 78.1246C9.81249 73.6246 10.5625 69.0621 12.5 64.9371C10.6875 60.2496 10.5 55.1246 12.0625 50.3746C14.375 44.4371 18.75 39.4996 24.1875 36.3746C27.8125 25.8121 38 18.7496 49.1875 19.4996C59.1875 10.1246 74.5 9.12459 85.625 17.1871C88.25 16.4996 91 16.1246 93.75 16.1246C102.25 15.9371 110.312 19.6871 115.625 26.3746C128.375 29.6871 137.5 41.0621 138 54.3121C138.312 61.2496 136.437 68.0621 132.625 73.8746C133.062 76.1246 133.312 78.3746 133.312 80.6871ZM102.062 71.8746C105.625 72.3121 108.437 74.9996 108.437 78.5621C108.437 80.2197 107.779 81.8094 106.607 82.9815C105.435 84.1536 103.845 84.8121 102.187 84.8121H98.25C96.25 90.4371 92.75 95.3746 88.125 99.1246C89.6875 99.6871 91.3125 99.9996 92.9375 100.437C125 99.9996 121.25 80.4371 121.25 80.1246C121.084 75.8314 119.22 71.78 116.067 68.8615C112.914 65.943 108.731 64.3965 104.437 64.5621C102.78 64.5621 101.19 63.9036 100.018 62.7315C98.846 61.5594 98.1875 59.9697 98.1875 58.3121C98.1875 56.6545 98.846 55.0648 100.018 53.8927C101.19 52.7206 102.78 52.0621 104.437 52.0621C112.125 52.2496 119.5 55.1246 125.25 60.1871C125.562 58.3746 125.75 56.4996 125.75 54.6246C125.375 46.8746 121.875 40.1246 107.812 38.8121C100 20.3121 80.3125 30.5621 80.3125 36.3121C80.125 37.7496 81.625 40.8121 81.875 40.9996C83.5326 40.9996 85.1223 41.6581 86.2944 42.8302C87.4665 44.0023 88.125 45.592 88.125 47.2496C88.125 50.6871 85.3125 53.4996 81.875 53.4996C78.5625 53.3746 75.4375 52.1246 72.9375 49.9996C69.9375 51.9371 66.5 53.1246 62.9375 53.4996C59.375 53.8121 56.4375 51.3121 56.25 47.8746C56.1348 47.0582 56.1878 46.2268 56.4056 45.4316C56.6234 44.6364 57.0014 43.8941 57.5164 43.2503C58.0315 42.6064 58.6727 42.0747 59.4007 41.6876C60.1288 41.3006 60.9282 41.0665 61.75 40.9996C62.75 40.8746 67.625 40.1246 67.625 36.1871C67.625 32.0621 69.1875 28.1246 71.875 24.9996C66.125 23.4371 59.9375 25.4996 53.6875 33.0621C42.1875 31.2496 37.5 32.8121 34.0625 44.9996C28.125 47.9371 25 49.9996 23.625 56.2496C30.375 54.8746 37.3125 55.4371 43.75 57.8121C46.875 58.9996 48.625 62.4996 47.4375 65.8746C46.25 69.1246 42.625 70.7496 39.375 69.5621C34.8125 67.5621 29.6875 67.4371 25 69.1871C23 70.8746 23 74.3746 23 77.1246C23 81.7496 25.3125 86.0621 29.25 88.5621C32.5625 90.2496 36.25 91.1246 39.9375 91.0621C39 89.4371 38.1875 87.7496 37.5 85.9996C37.008 84.3938 37.1578 82.6598 37.9181 81.1623C38.6783 79.6647 39.9897 78.5203 41.5764 77.9699C43.1631 77.4194 44.9014 77.5057 46.4258 78.2106C47.9502 78.9155 49.1418 80.1841 49.75 81.7496C52.25 88.8746 58.625 93.7496 66.125 94.5621C74.6875 94.1246 82.3125 89.0621 86.0625 81.2496C87.5 72.6246 94.4375 71.8746 102.062 71.8746ZM114.562 118.562L110.687 110.437L106.25 111.437L112.5 119.25L114.562 118.562ZM85.5 64.7496C85.5543 63.153 84.9952 61.5961 83.9374 60.3989C82.8797 59.2017 81.4036 58.4549 79.8125 58.3121C75.375 58.0621 71.0625 59.5621 67.75 62.4996C64.1875 66.1246 62.3125 71.1246 62.5 76.1871C62.5 77.8447 63.1585 79.4344 64.3306 80.6065C65.5027 81.7786 67.0924 82.4371 68.75 82.4371C72.3125 82.4371 75 79.6246 75 76.1871C75 74.4996 75.4375 72.8121 76.4375 71.4371C77.1875 70.8121 78.125 70.4996 79.125 70.4996C82.5625 70.6871 85.5 68.1246 85.5 64.7496Z" fill="#F8C033"/>
</svg>
